IMDB Link: 
http://www.imdb.com/title/tt1928330/ [rate:no votes] unknown votes



Description:
A Vietnam veteran who becomes a local hero after saving a man from attackers on a city bus decides to take action when his best friend is murdered and the police show little interest in solving the crime.  

MediaInfo:
General
Complete name                            : Bad.Ass.2012.VODRiP.AC3-2.0.XviD-SiC.avi
Format                                   : AVI
Format/Info                              : Audio Video Interleave
File size                                : 1.33 GiB
Duration                                 : 1h 30mn
Overall bit rate                         : 2 118 Kbps

Video
ID                                       : 0
Format                                   : MPEG-4 Visual
Format profile                           : Advanced Simple@L5
Format settings, BVOP                    : 2
Format settings, QPel                    : No
Format settings, GMC                     : No warppoints
Format settings, Matrix                  : Default (H.263)
Muxing mode                              : Packed bitstream
Codec ID                                 : XVID
Codec ID/Hint                            : XviD
Duration                                 : 1h 30mn
Bit rate                                 : 1 854 Kbps
Width                                    : 720 pixels
Height                                   : 400 pixels
Display aspect ratio                     : 16:9
Frame rate                               : 23.976 fps
Color space                              : YUV
Chroma subsampling                       : 4:2:0
Bit depth                                : 8 bits
Scan type                                : Progressive
Compression mode                         : Lossy
Bits/(Pixel*Frame)                       : 0.269
Stream size                              : 1.17 GiB (88%)
Writing library                          : XviD 1.1.2 (UTC 2006-11-01)

Audio
ID                                       : 1
Format                                   : AC-3
Format/Info                              : Audio Coding 3
Mode extension                           : CM (complete main)
Codec ID                                 : 2000
Duration                                 : 1h 30mn
Bit rate mode                            : Constant
Bit rate                                 : 256 Kbps
Channel(s)                               : 2 channels
Channel positions                        : Front: L R
Sampling rate                            : 48.0 KHz
Bit depth                                : 16 bits
Compression mode                         : Lossy
Stream size                              : 165 MiB (12%)
Alignment                                : Aligned on interleaves
Interleave, duration                     : 64 ms (1.53 video frames)
Interleave, preload duration             : 192 ms
Title                                    : badass
 
http://img404.imageshack.us/img404/2253/screencap00013.png 
http://img254.imageshack.us/img254/8967/screencap00016.png 
http://img844.imageshack.us/img844/8924/screencap00017.png 
http://img171.imageshack.us/img171/8418/screencap00021.png